:SAMPLES-PER-SECOND 30
:FULLY-SPECIFIED
:DEGREES
309
root  36.6554 36.1652 -4.96215 58.2379 80.8075 43.9449
RightUpLeg  -52.6597 -14.8357 1.45396
RightLeg  48.4878 -2.75429 -3.68092
RightFoot  -7.50302 0.235911 -8.51229
RightToes  0.000482159 0.542163 -0.142577
Spine  63.1143 -6.97503 17.6605
Spine1  16.3172 8.89753 -12.3789
HEad  -28.5306 -24.9261 9.50114
LeftShoulder1  11.0619 -17.9819 -44.8426
LeftArm  3.4329 13.3138 -23.8522
LeftForeArm  38.0916 -45.4119 -8.69402
LeftHand  -0.25398 0.0180481 5.50724
RightShoulder  2.39504 9.40992 11.4247
RightArm  -42.7559 60.2535 -0.955538
RightForeArm  1.13805 2.87243 4.6886
RightHand  -5.63067 15.3725 -31.1771
LeftUpLeg  -49.7302 8.56573 -9.43011
LeftLeg  24.4587 -9.88321 -4.54247
LeftFoot  11.7752 -0.13426 0.348807
LeftToes  1.06246e-005 4.65854e-005 -8.18502e-006
310
root  37.3507 35.9724 -5.311 60.509 79.4401 44.0625
RightUpLeg  -55.1243 -13.8388 -0.488522
RightLeg  50.7587 -2.95784 -4.25246
RightFoot  -8.90961 0.086231 -6.8913
RightToes  0.000482159 0.542163 -0.142577
Spine  64.7513 -7.17687 17.2338
Spine1  15.5185 8.8228 -12.9553
HEad  -30.5109 -25.6592 10.3596
LeftShoulder1  11.2097 -18.1975 -44.9955
LeftArm  4.14641 12.545 -23.4783
LeftForeArm  37.384 -45.3125 -8.70656
LeftHand  -0.25398 0.0180481 5.50724
RightShoulder  2.21412 9.28427 10.059
RightArm  -48.1593 60.4357 -7.17101
RightForeArm  1.00907 2.12461 4.15755
RightHand  -6.26404 16.6631 -32.5432
LeftUpLeg  -52.9077 8.88585 -11.8445
LeftLeg  27.8072 -9.08471 -4.83396
LeftFoot  10.2653 -0.610458 2.87786
LeftToes  1.06246e-005 4.65854e-005 -8.18502e-006
311
root  37.9781 35.8635 -5.63753 63.8081 77.9955 45.2247
RightUpLeg  -57.5018 -13.0324 -2.73271
RightLeg  52.5558 -3.18459 -4.85356
RightFoot  -9.47964 0.0130285 -4.78995
RightToes  0.000482159 0.542163 -0.142577
Spine  66.2025 -7.68405 16.6674
Spine1  15.0875 8.62736 -13.9684
HEad  -32.5533 -26.0872 11.6152
LeftShoulder1  11.0257 -18.1931 -44.2306
LeftArm  4.21573 11.6686 -23.8397
LeftForeArm  36.9268 -45.9428 -8.96039
LeftHand  -0.25398 0.0180481 5.50724
RightShoulder  2.0446 9.50583 8.26946
RightArm  -53.7168 59.9351 -12.484
RightForeArm  -0.105317 1.4827 3.35321
RightHand  -7.23993 18.4137 -34.6643
LeftUpLeg  -55.4458 9.1832 -14.5902
LeftLeg  29.8654 -8.78302 -5.08533
LeftFoot  8.23525 -0.832242 4.52143
LeftToes  1.06246e-005 4.65854e-005 -8.18502e-006
312
root  38.5472 35.7542 -5.94985 65.5776 76.6197 45.0066
RightUpLeg  -59.9396 -12.0899 -4.75344
RightLeg  54.4079 -3.6902 -5.94792
RightFoot  -9.44645 -0.0213044 -2.60815
RightToes  0.000482159 0.542163 -0.142577
Spine  67.6189 -7.98813 16.2562
Spine1  14.4689 8.56212 -14.6896
HEad  -34.0897 -26.6387 12.9363
LeftShoulder1  10.9174 -18.2475 -43.6567
LeftArm  3.94498 11.095 -23.989
LeftForeArm  36.7209 -47.3151 -9.47927
LeftHand  -0.25398 0.0180481 5.50724
RightShoulder  1.83392 9.49118 6.46464
RightArm  -58.3412 59.1424 -16.4308
RightForeArm  -1.21978 1.06196 2.52106
RightHand  -8.29996 20.2059 -36.7864
LeftUpLeg  -57.572 9.92697 -17.4842
LeftLeg  31.4401 -9.27614 -5.73396
LeftFoot  7.23412 -1.00194 5.84777
LeftToes  1.06246e-005 4.65854e-005 -8.18502e-006
313
root  39.0567 35.6363 -6.24037 66.4302 75.3889 44.228
RightUpLeg  -62.0782 -11.1856 -6.39516
RightLeg  56.1611 -4.44618 -7.54741
RightFoot  -9.24059 -0.0481133 -0.78483
RightToes  0.000482159 0.542163 -0.142577
Spine  68.8786 -8.07473 16.0515
Spine1  13.7763 8.59291 -14.9719
HEad  -35.3178 -27.3748 14.3327
LeftShoulder1  10.9199 -18.4075 -43.3275
LeftArm  3.36984 10.8744 -23.9301
LeftForeArm  36.5916 -49.2075 -10.2326
LeftHand  -0.25398 0.0180481 5.50724
RightShoulder  1.60807 9.16941 4.86508
RightArm  -61.7824 58.2917 -19.6273
RightForeArm  -1.732 0.735062 1.87793
RightHand  -8.71884 20.9392 -37.4891
LeftUpLeg  -59.3924 10.625 -19.9855
LeftLeg  32.9794 -9.58378 -6.29609
LeftFoot  6.25484 -1.12382 7.00823
LeftToes  1.06246e-005 4.65854e-005 -8.18502e-006
